<?xml version="1.0" standalone="no"?><!DOCTYPE svg PUBLIC "-//W3C//DTD SVG 1.1//EN" "http://www.w3.org/Graphics/SVG/1.1/DTD/svg11.dtd"><svg t="1534401771001" class="icon" style="" viewBox="0 0 1024 1024" version="1.1" xmlns="http://www.w3.org/2000/svg" p-id="12999" xmlns:xlink="http://www.w3.org/1999/xlink" width="200" height="200"><defs><style type="text/css"></style></defs><path d="M289.182 891.242h167.108v104.908h-167.108zM594.516 349.88c-46.234 0-82.506 51.55-82.506 51.55s-34.216-51.55-82.526-51.55c-46.99 0-85.362 38.758-87.874 85.682-1.414 26.508 7.132 46.688 19.172 64.958 24.06 36.508 129.252 124.4 151.382 124.4 22.588 0 126.844-87.57 151.062-124.4 12.066-18.356 20.588-38.448 19.168-64.958-2.512-46.928-40.886-85.682-87.878-85.682" fill="#DE5E88" p-id="13000"></path><path d="M247.412 27.852c-53.836 0-97.48 43.642-97.48 97.48v668.43c0 53.836 43.642 97.48 97.48 97.48h626.654V27.852H247.412z m415.812 472.666c-24.22 36.828-128.476 124.4-151.062 124.4-22.128 0-127.322-87.894-151.382-124.4-12.04-18.274-20.588-38.448-19.172-64.958 2.512-46.926 40.882-85.684 87.874-85.684 48.31 0 82.526 51.55 82.526 51.55s36.274-51.55 82.506-51.55c46.994 0 85.366 38.758 87.88 85.684 1.42 26.51-7.102 46.602-19.17 64.958z" fill="#FECC85" p-id="13001"></path><path d="M874.066 0H247.412C178.306 0 122.082 56.224 122.082 125.33V793.76c0 69.108 56.224 125.33 125.33 125.33h13.926v77.056c0 15.382 12.468 27.852 27.852 27.852h167.108c15.382 0 27.852-12.468 27.852-27.852v-77.056h389.918c15.382 0 27.852-12.468 27.852-27.852V27.852C901.918 12.47 889.448 0 874.066 0z m-445.62 968.298H317.04v-49.204h111.406v49.204z m417.77-104.908H247.414c-38.394 0-69.628-31.236-69.628-69.628V125.33c0-38.394 31.236-69.628 69.628-69.628h598.802v807.688z" fill="" p-id="13002"></path><path d="M594.516 322.028c-34.808 0-63.604 19.806-82.306 37.38-18.504-17.586-47.222-37.38-82.726-37.38-61.506 0-112.324 49.216-115.686 112.052-2.024 37.942 12.572 64.838 23.73 81.768 4.756 7.22 11.648 15.542 19.78 24.322 17.886 19.318 41.774 40.85 62.136 57.7 41.47 34.312 64.242 47.18 77.412 52.006a55.92 55.92 0 0 0 5.312 1.674 42.44 42.44 0 0 0 2.91 0.646c3.13 0.574 5.362 0.574 7.088 0.574 7.984 0 26.69 0 92.708-54.812a804.134 804.134 0 0 0 28.314-24.662c19.14-17.482 37.702-36.266 49.122-51.566a124.428 124.428 0 0 0 4.192-5.912c9.754-14.84 22.142-37.31 23.726-68.06a130.254 130.254 0 0 0-0.02-13.686c-3.366-62.828-54.184-112.044-115.692-112.044z m-82.288 274.034c-26.06-12.124-108.658-81.232-128.192-110.864-11.144-16.914-15.516-31.314-14.616-48.146 1.75-32.712 28.696-59.32 60.062-59.32 26.974 0 52.012 28.294 59.32 39.1 5.066 7.634 13.594 12.246 22.754 12.402 9.28 0.22 17.844-4.242 23.17-11.698 7.91-11.07 34.068-39.806 59.786-39.806 31.372 0 58.316 26.612 60.066 59.32 0.91 17.018-3.326 30.97-14.624 48.166-19.62 29.836-101.882 98.886-127.726 110.846z" fill="" p-id="13003"></path><path d="M233.488 219.462v480.168c0 7.386 2.936 14.472 8.158 19.694l80.206 80.206a27.856 27.856 0 0 0 19.694 8.158h340.91c7.386 0 14.472-2.936 19.694-8.158l80.206-80.206a27.856 27.856 0 0 0 8.158-19.694V386.086c0-15.382-12.468-27.852-27.852-27.852-15.382 0-27.852 12.47-27.852 27.852v302.008l-63.888 63.89H353.084l-63.89-63.89V230.998l63.888-63.89H670.92l71.996 71.998c10.878 10.878 28.514 10.878 39.388 0 10.876-10.876 10.878-28.512 0-39.388l-80.154-80.156a27.856 27.856 0 0 0-19.694-8.158H341.544a27.856 27.856 0 0 0-19.694 8.158l-80.206 80.206a27.858 27.858 0 0 0-8.156 19.694z" fill="" p-id="13004"></path><path d="M788.368 289.802a27.542 27.542 0 0 0-2.562-4.818c-1.002-1.532-2.172-2.952-3.454-4.234s-2.702-2.45-4.234-3.454a27.542 27.542 0 0 0-4.818-2.562 28.174 28.174 0 0 0-5.208-1.588 27.432 27.432 0 0 0-10.862 0c-1.782 0.362-3.538 0.892-5.208 1.588-1.698 0.696-3.314 1.56-4.818 2.562-1.532 1.002-2.952 2.172-4.234 3.454s-2.45 2.702-3.454 4.234c-1.002 1.504-1.866 3.12-2.562 4.818a28.174 28.174 0 0 0-2.146 10.638c0 1.81 0.196 3.648 0.558 5.43 0.362 1.782 0.892 3.538 1.588 5.236 0.696 1.672 1.56 3.286 2.562 4.79 1.002 1.532 2.172 2.952 3.454 4.234s2.702 2.45 4.234 3.482c1.504 1.002 3.12 1.866 4.818 2.562a27.406 27.406 0 0 0 10.64 2.118 27.436 27.436 0 0 0 10.64-2.118c1.698-0.696 3.314-1.56 4.818-2.562 1.532-1.03 2.952-2.2 4.234-3.482a26.72 26.72 0 0 0 3.454-4.234 28.32 28.32 0 0 0 2.562-4.79 26.98 26.98 0 0 0 1.588-5.236c0.362-1.782 0.558-3.62 0.558-5.43s-0.194-3.648-0.558-5.43a26.246 26.246 0 0 0-1.59-5.208z" fill="" p-id="13005"></path></svg>