<?xml version="1.0" standalone="no"?><!DOCTYPE svg PUBLIC "-//W3C//DTD SVG 1.1//EN" "http://www.w3.org/Graphics/SVG/1.1/DTD/svg11.dtd"><svg t="1534401529999" class="icon" style="" viewBox="0 0 1024 1024" version="1.1" xmlns="http://www.w3.org/2000/svg" p-id="7575" xmlns:xlink="http://www.w3.org/1999/xlink" width="200" height="200"><defs><style type="text/css"></style></defs><path d="M846.8 494.8v285.9c0 34-27.8 61.8-61.8 61.8H266.1c-34 0-61.9-27.8-61.9-61.8V494.8l62.7-56V248.7c0-34 27.9-61.9 61.9-61.9h393.5c34 0 61.8 27.9 61.8 61.9v190.1l62.7 56z" fill="#FFE4B3" p-id="7576"></path><path d="M751.7 829.6H232.9c-42.4 0-77-34.5-77-77V488.1l336.4 120.3 336.4-120.3v264.6c0 42.4-34.5 76.9-77 76.9zM186.1 530.9v221.8c0 25.8 21 46.8 46.8 46.8h518.8c25.8 0 46.8-21 46.8-46.8V530.9L492.3 640.4l-5.1-1.8-301.1-107.7z" fill="#EFA716" p-id="7577"></path><path d="M766 530.1h-30.1V220.6c0-25.8-21-46.8-46.8-46.8H295.6c-25.8 0-46.8 21-46.8 46.8v305.1h-30.1V220.6c0-42.4 34.5-77 77-77h393.5c42.4 0 77 34.5 77 77v309.5z" fill="#EFA716" p-id="7578"></path><path d="M186.1 527.2H156V460l67.6-60.5 20.1 22.5-57.6 51.5zM828.7 527.2h-30.1v-53.7L741 422l20-22.5 67.7 60.5z" fill="#EFA716" p-id="7579"></path><path d="M342.5 281.4h-18.8c-11 0-20.1-9-20.1-20.1v-4.1c0-11 9-20.1 20.1-20.1h18.8c11 0 20.1 9 20.1 20.1v4.1c0 11.1-9 20.1-20.1 20.1zM660.9 281.4H409.3c-11 0-20.1-9-20.1-20.1v-4.1c0-11 9-20.1 20.1-20.1h251.6c11 0 20.1 9 20.1 20.1v4.1c0 11.1-9.1 20.1-20.1 20.1z" fill="#EFA716" p-id="7580"></path><path d="M342.5 371.7h-18.8c-11 0-20.1-9-20.1-20.1v-4.1c0-11 9-20.1 20.1-20.1h18.8c11 0 20.1 9 20.1 20.1v4.1c0 11-9 20.1-20.1 20.1zM660.9 371.7H409.3c-11 0-20.1-9-20.1-20.1v-4.1c0-11 9-20.1 20.1-20.1h251.6c11 0 20.1 9 20.1 20.1v4.1c0 11-9.1 20.1-20.1 20.1zM660.7 462H324c-11 0-20.1-9-20.1-20.1v-4.1c0-11 9-20.1 20.1-20.1h336.7c11 0 20.1 9 20.1 20.1v4.1c0 11-9.1 20.1-20.1 20.1z" fill="#EFA716" p-id="7581"></path></svg>