<?xml version="1.0" standalone="no"?><!DOCTYPE svg PUBLIC "-//W3C//DTD SVG 1.1//EN" "http://www.w3.org/Graphics/SVG/1.1/DTD/svg11.dtd"><svg t="1534399863527" class="icon" style="" viewBox="0 0 1024 1024" version="1.1" xmlns="http://www.w3.org/2000/svg" p-id="8817" xmlns:xlink="http://www.w3.org/1999/xlink" width="200" height="200"><defs><style type="text/css"></style></defs><path d="M836.176367 982.462081H187.823633c-79.463845 0-144.479718-65.015873-144.479718-144.479718V191.435626c0-79.463845 65.015873-144.479718 144.479718-144.479718h648.352734c79.463845 0 144.479718 65.015873 144.479718 144.479718v648.352734c0 79.463845-65.015873 142.673721-144.479718 142.673721z" fill="#F3C33C" p-id="8818"></path><path d="M836.176367 991.492063H187.823633c-84.881834 0-153.5097-68.627866-153.5097-153.5097V191.435626c0-84.881834 68.627866-153.5097 153.5097-153.5097h648.352734c84.881834 0 153.5097 68.627866 153.5097 153.5097v648.352734c0 83.075838-68.627866 151.703704-153.5097 151.703703zM187.823633 55.985891c-74.045855 0-135.449735 61.40388-135.449735 135.449735v648.352734c0 74.045855 61.40388 135.449735 135.449735 135.449735h648.352734c74.045855 0 135.449735-61.40388 135.449735-135.449735V191.435626c0-74.045855-61.40388-135.449735-135.449735-135.449735H187.823633z" fill="#333333" p-id="8819"></path><path d="M648.352734 691.696649l-176.987655-176.987654 176.987655-176.987655z" fill="#FFFFFF" p-id="8820"></path><path d="M657.382716 713.368607l-198.659612-198.659612 198.659612-198.659612v397.319224z m-173.375661-198.659612l155.315696 155.315696V359.393298l-155.315696 155.315697z" fill="#333333" p-id="8821"></path><path d="M511.097002 700.726631c-1.805996 0-5.417989 0-7.223986-1.805996l-180.599647-184.21164L505.679012 332.303351c3.611993-3.611993 9.029982-3.611993 12.641976 0s3.611993 9.029982 0 12.641975l-169.763669 169.763669 169.763669 169.763668c3.611993 3.611993 3.611993 9.029982 0 12.641975-1.805996 1.805996-3.611993 3.611993-7.223986 3.611993z" fill="#333333" p-id="8822"></path></svg>